<?xml version="1.0" encoding="utf-8"?>
<!-- Generator: Adobe Illustrator 25.4.1, SVG Export Plug-In . SVG Version: 6.00 Build 0)  -->
<svg version="1.1" id="Capa_1" xmlns="http://www.w3.org/2000/svg" xmlns:xlink="http://www.w3.org/1999/xlink" x="0px" y="0px"
	 viewBox="0 0 512 512" style="enable-background:new 0 0 512 512;" xml:space="preserve">
<style type="text/css">
	.st0{fill:#B3B3B3;}
</style>
<g>
	<g>
		<path class="st0" d="M494.2,359.5l-62.2-61.7c-7.8-7.8-20.5-7.7-28.3,0.1s-7.7,20.5,0.1,28.3l57.3,56.8h-24.4
			c-57.8,0-111-25-146.2-68.6c-6.9-8.6-19.5-9.9-28.1-3c-8.6,6.9-9.9,19.5-3,28.1c42.8,53,107.4,83.4,177.3,83.4h22.4l-55.3,54.8
			c-7.8,7.8-7.9,20.4-0.1,28.3c3.9,3.9,9.1,5.9,14.2,5.9c5.1,0,10.2-1.9,14.1-5.8l62.2-61.7c11.4-11.4,17.8-26.5,17.8-42.5
			S505.7,370.8,494.2,359.5z"/>
	</g>
</g>
<g>
	<g>
		<path class="st0" d="M494.2,67.5L432.1,5.8c-7.8-7.8-20.5-7.7-28.3,0.1s-7.7,20.5,0.1,28.3L459.2,89h-22.4
			c-81.7,0-157.3,43.1-197.3,112.4L231,216l-13.7-23.7C177.3,123.1,101.7,80,20,80C9,80,0,89,0,100s9,20,20,20
			c67.4,0,129.8,35.4,162.7,92.4l25.2,43.6l-25.2,43.6C149.8,356.6,87.4,392,20,392c-11,0-20,9-20,20s9,20,20,20
			c81.7,0,157.3-43.1,197.3-112.4l30.8-53.3c0.1-0.2,0.2-0.4,0.3-0.6l25.6-44.4c32.9-57,95.3-92.4,162.7-92.4h24.4l-57.3,56.8
			c-7.8,7.8-7.9,20.4-0.1,28.3c3.9,3.9,9.1,5.9,14.2,5.9c5.1,0,10.2-1.9,14.1-5.8l62.2-61.7c11.4-11.4,17.8-26.5,17.8-42.5
			S505.7,78.8,494.2,67.5z"/>
	</g>
</g>
</svg>
